<svg xmlns="http://www.w3.org/2000/svg" xmlns:xlink="http://www.w3.org/1999/xlink" width="500" zoomAndPan="magnify" viewBox="0 0 375 374.999991" height="500" preserveAspectRatio="xMidYMid meet" version="1.0"><defs><filter x="0%" y="0%" width="100%" height="100%" id="id1"><feColorMatrix values="0 0 0 0 1 0 0 0 0 1 0 0 0 0 1 0 0 0 1 0" color-interpolation-filters="sRGB"/></filter><g/><mask id="id2"><g filter="url(#id1)"><rect x="-37.5" width="450" fill="rgb(0%, 0%, 0%)" y="-37.499999" height="449.999989" fill-opacity="0.298"/></g></mask><clipPath id="id3"><path d="M 0.117188 1.074219 L 207.117188 1.074219 L 207.117188 286.074219 L 0.117188 286.074219 Z M 0.117188 1.074219 " clip-rule="nonzero"/></clipPath><clipPath id="id4"><rect x="0" width="208" y="0" height="287"/></clipPath><mask id="id5"><g filter="url(#id1)"><rect x="-37.5" width="450" fill="rgb(0%, 0%, 0%)" y="-37.499999" height="449.999989" fill-opacity="0.298"/></g></mask><clipPath id="id6"><path d="M 32 0.652344 L 44 0.652344 L 44 12 L 32 12 Z M 32 0.652344 " clip-rule="nonzero"/></clipPath><clipPath id="id7"><path d="M 81 0.652344 L 93 0.652344 L 93 12 L 81 12 Z M 81 0.652344 " clip-rule="nonzero"/></clipPath><clipPath id="id8"><path d="M 0.0390625 24 L 125 24 L 125 45.652344 L 0.0390625 45.652344 Z M 0.0390625 24 " clip-rule="nonzero"/></clipPath><clipPath id="id9"><rect x="0" width="126" y="0" height="46"/></clipPath><mask id="id10"><g filter="url(#id1)"><rect x="-37.5" width="450" fill="rgb(0%, 0%, 0%)" y="-37.499999" height="449.999989" fill-opacity="0.298"/></g></mask><clipPath id="id11"><path d="M 0.359375 9 L 22 9 L 22 35 L 0.359375 35 Z M 0.359375 9 " clip-rule="nonzero"/></clipPath><clipPath id="id12"><rect x="0" width="285" y="0" height="42"/></clipPath></defs><rect x="-37.5" width="450" fill="rgb(100%, 100%, 100%)" y="-37.499999" height="449.999989" fill-opacity="1"/><rect x="-37.5" width="450" fill="rgb(100%, 100%, 100%)" y="-37.499999" height="449.999989" fill-opacity="1"/><rect x="-37.5" width="450" fill="rgb(100%, 100%, 100%)" y="-37.499999" height="449.999989" fill-opacity="1"/><rect x="-37.5" width="450" fill="rgb(100%, 100%, 100%)" y="-37.499999" height="449.999989" fill-opacity="1"/><g mask="url(#id2)"><g transform="matrix(1, 0, 0, 1, 84, 8)"><g clip-path="url(#id4)"><g clip-path="url(#id3)"><path fill="rgb(59.609985%, 47.44873%, 55.688477%)" d="M 182.339844 92.691406 L 149.738281 92.675781 L 149.738281 47.414062 C 149.738281 21.859375 128.949219 1.074219 103.386719 1.074219 C 77.828125 1.074219 57.03125 21.859375 57.03125 47.414062 L 57.03125 92.675781 L 24.828125 92.675781 C 22.445312 92.742188 20.382812 94.554688 20.011719 96.980469 C 19.835938 98.660156 0.386719 279.042969 0.167969 281.269531 C 0.179688 283.792969 2.457031 286.070312 5.257812 286.070312 L 201.992188 286.070312 C 204.78125 286.070312 207.0625 283.792969 207.0625 280.992188 C 206.851562 279.042969 187.421875 98.660156 187.21875 96.839844 C 186.863281 94.554688 184.800781 92.746094 182.339844 92.691406 Z M 67.171875 47.414062 C 67.171875 27.445312 83.414062 11.214844 103.386719 11.214844 C 123.355469 11.214844 139.585938 27.445312 139.585938 47.414062 L 139.585938 92.675781 L 67.171875 92.675781 Z M 10.9375 275.914062 L 11.320312 272.398438 C 14.121094 246.210938 21.96875 173.492188 27.675781 120.523438 L 29.578125 102.832031 L 57.03125 102.832031 L 57.03125 122.523438 C 57.03125 125.308594 59.308594 127.585938 62.109375 127.585938 C 64.902344 127.585938 67.171875 125.308594 67.171875 122.523438 L 67.171875 102.832031 L 139.585938 102.832031 L 139.585938 122.523438 C 139.585938 125.308594 141.867188 127.585938 144.667969 127.585938 C 147.460938 127.585938 149.738281 125.308594 149.738281 122.523438 L 149.738281 102.832031 L 177.660156 102.832031 L 196.308594 275.914062 Z M 10.9375 275.914062 " fill-opacity="1" fill-rule="nonzero"/></g></g></g></g><g mask="url(#id5)"><g transform="matrix(1, 0, 0, 1, 125, 179)"><g clip-path="url(#id9)"><g clip-path="url(#id6)"><path fill="rgb(59.609985%, 47.44873%, 55.688477%)" d="M 43.820312 6.039062 C 43.820312 6.390625 43.785156 6.742188 43.71875 7.089844 C 43.648438 7.4375 43.542969 7.773438 43.40625 8.097656 C 43.273438 8.425781 43.105469 8.734375 42.90625 9.03125 C 42.707031 9.324219 42.484375 9.597656 42.230469 9.847656 C 41.980469 10.097656 41.707031 10.320312 41.410156 10.515625 C 41.113281 10.710938 40.800781 10.878906 40.46875 11.011719 C 40.140625 11.148438 39.800781 11.25 39.453125 11.320312 C 39.101562 11.390625 38.75 11.421875 38.394531 11.421875 C 38.035156 11.421875 37.683594 11.390625 37.335938 11.320312 C 36.984375 11.25 36.644531 11.148438 36.316406 11.011719 C 35.988281 10.878906 35.675781 10.710938 35.378906 10.515625 C 35.082031 10.320312 34.808594 10.097656 34.554688 9.847656 C 34.304688 9.597656 34.078125 9.324219 33.878906 9.03125 C 33.683594 8.734375 33.515625 8.425781 33.378906 8.097656 C 33.242188 7.773438 33.140625 7.4375 33.070312 7.089844 C 33 6.742188 32.964844 6.390625 32.964844 6.039062 C 32.964844 5.683594 33 5.335938 33.070312 4.988281 C 33.140625 4.640625 33.242188 4.304688 33.378906 3.976562 C 33.515625 3.652344 33.683594 3.339844 33.878906 3.046875 C 34.078125 2.753906 34.304688 2.480469 34.554688 2.230469 C 34.808594 1.980469 35.082031 1.757812 35.378906 1.5625 C 35.675781 1.363281 35.988281 1.199219 36.316406 1.0625 C 36.644531 0.929688 36.984375 0.824219 37.335938 0.757812 C 37.683594 0.6875 38.035156 0.652344 38.394531 0.652344 C 38.75 0.652344 39.101562 0.6875 39.453125 0.757812 C 39.800781 0.824219 40.140625 0.929688 40.46875 1.0625 C 40.800781 1.199219 41.113281 1.363281 41.410156 1.5625 C 41.707031 1.757812 41.980469 1.980469 42.230469 2.230469 C 42.484375 2.480469 42.707031 2.753906 42.90625 3.046875 C 43.105469 3.339844 43.273438 3.652344 43.40625 3.976562 C 43.542969 4.304688 43.648438 4.640625 43.71875 4.988281 C 43.785156 5.335938 43.820312 5.683594 43.820312 6.039062 Z M 43.820312 6.039062 " fill-opacity="1" fill-rule="nonzero"/></g><g clip-path="url(#id7)"><path fill="rgb(59.609985%, 47.44873%, 55.688477%)" d="M 92.613281 6.039062 C 92.613281 6.390625 92.578125 6.742188 92.507812 7.089844 C 92.4375 7.4375 92.335938 7.773438 92.199219 8.097656 C 92.0625 8.425781 91.894531 8.734375 91.699219 9.03125 C 91.5 9.324219 91.273438 9.597656 91.023438 9.847656 C 90.769531 10.097656 90.496094 10.320312 90.199219 10.515625 C 89.902344 10.710938 89.589844 10.878906 89.261719 11.011719 C 88.933594 11.148438 88.59375 11.25 88.242188 11.320312 C 87.894531 11.390625 87.539062 11.421875 87.183594 11.421875 C 86.828125 11.421875 86.476562 11.390625 86.125 11.320312 C 85.777344 11.25 85.4375 11.148438 85.105469 11.011719 C 84.777344 10.878906 84.464844 10.710938 84.167969 10.515625 C 83.871094 10.320312 83.597656 10.097656 83.347656 9.847656 C 83.09375 9.597656 82.871094 9.324219 82.671875 9.03125 C 82.472656 8.734375 82.304688 8.425781 82.167969 8.097656 C 82.035156 7.773438 81.929688 7.4375 81.859375 7.089844 C 81.792969 6.742188 81.757812 6.390625 81.757812 6.039062 C 81.757812 5.683594 81.792969 5.335938 81.859375 4.988281 C 81.929688 4.640625 82.035156 4.304688 82.167969 3.976562 C 82.304688 3.652344 82.472656 3.339844 82.671875 3.046875 C 82.871094 2.753906 83.09375 2.480469 83.347656 2.230469 C 83.597656 1.980469 83.871094 1.757812 84.167969 1.5625 C 84.464844 1.363281 84.777344 1.199219 85.105469 1.0625 C 85.4375 0.929688 85.777344 0.824219 86.125 0.757812 C 86.476562 0.6875 86.828125 0.652344 87.183594 0.652344 C 87.539062 0.652344 87.894531 0.6875 88.242188 0.757812 C 88.59375 0.824219 88.933594 0.929688 89.261719 1.0625 C 89.589844 1.199219 89.902344 1.363281 90.199219 1.5625 C 90.496094 1.757812 90.769531 1.980469 91.023438 2.230469 C 91.273438 2.480469 91.5 2.753906 91.699219 3.046875 C 91.894531 3.339844 92.0625 3.652344 92.199219 3.976562 C 92.335938 4.304688 92.4375 4.640625 92.507812 4.988281 C 92.578125 5.335938 92.613281 5.683594 92.613281 6.039062 Z M 92.613281 6.039062 " fill-opacity="1" fill-rule="nonzero"/></g><g clip-path="url(#id8)"><path fill="rgb(59.609985%, 47.44873%, 55.688477%)" d="M 3.226562 45.160156 C 2.121094 45.160156 1.0625 44.558594 0.535156 43.523438 C -0.222656 42.054688 0.367188 40.238281 1.863281 39.488281 L 4.449219 38.183594 C 41.886719 19.3125 86.324219 19.808594 123.320312 39.519531 C 124.785156 40.296875 125.347656 42.113281 124.558594 43.582031 C 123.773438 45.039062 121.945312 45.59375 120.460938 44.8125 C 85.1875 26.019531 42.851562 25.554688 7.171875 43.539062 L 4.585938 44.84375 C 4.164062 45.054688 3.695312 45.160156 3.226562 45.160156 Z M 3.226562 45.160156 " fill-opacity="1" fill-rule="nonzero"/></g></g></g></g><g mask="url(#id10)"><g transform="matrix(1, 0, 0, 1, 45, 316)"><g clip-path="url(#id12)"><g clip-path="url(#id11)"><g fill="rgb(59.609985%, 47.44873%, 55.688477%)" fill-opacity="1"><g transform="translate(0.583009, 34.249977)"><g><path d="M 12.375 -9.796875 L 12.375 0 L 9.046875 0 L 9.046875 -9.796875 L 0.03125 -24.578125 L 2.953125 -24.578125 C 3.242188 -24.578125 3.472656 -24.503906 3.640625 -24.359375 C 3.816406 -24.222656 3.96875 -24.039062 4.09375 -23.8125 L 9.734375 -14.25 C 9.929688 -13.851562 10.113281 -13.476562 10.28125 -13.125 C 10.457031 -12.78125 10.609375 -12.429688 10.734375 -12.078125 C 10.859375 -12.429688 11 -12.78125 11.15625 -13.125 C 11.320312 -13.476562 11.503906 -13.851562 11.703125 -14.25 L 17.3125 -23.8125 C 17.414062 -24.007812 17.554688 -24.1875 17.734375 -24.34375 C 17.921875 -24.5 18.15625 -24.578125 18.4375 -24.578125 L 21.375 -24.578125 Z M 12.375 -9.796875 "/></g></g></g></g><g fill="rgb(59.609985%, 47.44873%, 55.688477%)" fill-opacity="1"><g transform="translate(21.99408, 34.249977)"><g><path d="M 9.75 -17.65625 C 11.019531 -17.65625 12.160156 -17.441406 13.171875 -17.015625 C 14.191406 -16.597656 15.0625 -16 15.78125 -15.21875 C 16.5 -14.4375 17.050781 -13.492188 17.4375 -12.390625 C 17.820312 -11.285156 18.015625 -10.054688 18.015625 -8.703125 C 18.015625 -7.328125 17.820312 -6.085938 17.4375 -4.984375 C 17.050781 -3.890625 16.5 -2.953125 15.78125 -2.171875 C 15.0625 -1.398438 14.191406 -0.804688 13.171875 -0.390625 C 12.160156 0.0234375 11.019531 0.234375 9.75 0.234375 C 8.46875 0.234375 7.3125 0.0234375 6.28125 -0.390625 C 5.257812 -0.804688 4.390625 -1.398438 3.671875 -2.171875 C 2.953125 -2.953125 2.398438 -3.890625 2.015625 -4.984375 C 1.628906 -6.085938 1.4375 -7.328125 1.4375 -8.703125 C 1.4375 -10.054688 1.628906 -11.285156 2.015625 -12.390625 C 2.398438 -13.492188 2.953125 -14.4375 3.671875 -15.21875 C 4.390625 -16 5.257812 -16.597656 6.28125 -17.015625 C 7.3125 -17.441406 8.46875 -17.65625 9.75 -17.65625 Z M 9.75 -2.140625 C 11.457031 -2.140625 12.734375 -2.710938 13.578125 -3.859375 C 14.429688 -5.015625 14.859375 -6.625 14.859375 -8.6875 C 14.859375 -10.75 14.429688 -12.359375 13.578125 -13.515625 C 12.734375 -14.671875 11.457031 -15.25 9.75 -15.25 C 8.875 -15.25 8.113281 -15.097656 7.46875 -14.796875 C 6.820312 -14.503906 6.285156 -14.078125 5.859375 -13.515625 C 5.429688 -12.953125 5.109375 -12.257812 4.890625 -11.4375 C 4.679688 -10.625 4.578125 -9.707031 4.578125 -8.6875 C 4.578125 -6.625 5.003906 -5.015625 5.859375 -3.859375 C 6.710938 -2.710938 8.007812 -2.140625 9.75 -2.140625 Z M 9.75 -2.140625 "/></g></g></g><g fill="rgb(59.609985%, 47.44873%, 55.688477%)" fill-opacity="1"><g transform="translate(41.449321, 34.249977)"><g><path d="M 16.703125 -17.375 L 16.703125 0 L 14.890625 0 C 14.453125 0 14.175781 -0.210938 14.0625 -0.640625 L 13.828125 -2.5 C 13.078125 -1.664062 12.226562 -0.992188 11.28125 -0.484375 C 10.34375 0.0234375 9.269531 0.28125 8.0625 0.28125 C 7.113281 0.28125 6.273438 0.125 5.546875 -0.1875 C 4.816406 -0.507812 4.207031 -0.957031 3.71875 -1.53125 C 3.226562 -2.101562 2.859375 -2.796875 2.609375 -3.609375 C 2.367188 -4.421875 2.25 -5.316406 2.25 -6.296875 L 2.25 -17.375 L 5.296875 -17.375 L 5.296875 -6.296875 C 5.296875 -4.984375 5.597656 -3.960938 6.203125 -3.234375 C 6.804688 -2.515625 7.722656 -2.15625 8.953125 -2.15625 C 9.859375 -2.15625 10.703125 -2.367188 11.484375 -2.796875 C 12.265625 -3.234375 12.988281 -3.828125 13.65625 -4.578125 L 13.65625 -17.375 Z M 16.703125 -17.375 "/></g></g></g><g fill="rgb(59.609985%, 47.44873%, 55.688477%)" fill-opacity="1"><g transform="translate(60.5786, 34.249977)"><g><path d="M 5.3125 -13.890625 C 5.863281 -15.085938 6.539062 -16.019531 7.34375 -16.6875 C 8.144531 -17.351562 9.125 -17.6875 10.28125 -17.6875 C 10.644531 -17.6875 10.992188 -17.644531 11.328125 -17.5625 C 11.671875 -17.488281 11.972656 -17.363281 12.234375 -17.1875 L 12.015625 -14.90625 C 11.941406 -14.625 11.769531 -14.484375 11.5 -14.484375 C 11.332031 -14.484375 11.09375 -14.515625 10.78125 -14.578125 C 10.476562 -14.648438 10.132812 -14.6875 9.75 -14.6875 C 9.195312 -14.6875 8.707031 -14.601562 8.28125 -14.4375 C 7.851562 -14.28125 7.46875 -14.046875 7.125 -13.734375 C 6.789062 -13.421875 6.488281 -13.03125 6.21875 -12.5625 C 5.945312 -12.101562 5.703125 -11.578125 5.484375 -10.984375 L 5.484375 0 L 2.421875 0 L 2.421875 -17.375 L 4.171875 -17.375 C 4.503906 -17.375 4.734375 -17.3125 4.859375 -17.1875 C 4.984375 -17.0625 5.066406 -16.84375 5.109375 -16.53125 Z M 5.3125 -13.890625 "/></g></g></g><g fill="rgb(59.609985%, 47.44873%, 55.688477%)" fill-opacity="1"><g transform="translate(73.068383, 34.249977)"><g/></g></g><g fill="rgb(59.609985%, 47.44873%, 55.688477%)" fill-opacity="1"><g transform="translate(81.85241, 34.249977)"><g><path d="M 14.515625 -14.296875 C 14.421875 -14.171875 14.328125 -14.070312 14.234375 -14 C 14.148438 -13.925781 14.023438 -13.890625 13.859375 -13.890625 C 13.691406 -13.890625 13.503906 -13.960938 13.296875 -14.109375 C 13.085938 -14.253906 12.832031 -14.410156 12.53125 -14.578125 C 12.226562 -14.753906 11.851562 -14.910156 11.40625 -15.046875 C 10.96875 -15.191406 10.429688 -15.265625 9.796875 -15.265625 C 8.941406 -15.265625 8.1875 -15.113281 7.53125 -14.8125 C 6.875 -14.507812 6.328125 -14.070312 5.890625 -13.5 C 5.453125 -12.925781 5.117188 -12.234375 4.890625 -11.421875 C 4.671875 -10.609375 4.5625 -9.703125 4.5625 -8.703125 C 4.5625 -7.648438 4.679688 -6.710938 4.921875 -5.890625 C 5.160156 -5.078125 5.5 -4.390625 5.9375 -3.828125 C 6.382812 -3.273438 6.914062 -2.851562 7.53125 -2.5625 C 8.15625 -2.269531 8.859375 -2.125 9.640625 -2.125 C 10.378906 -2.125 10.988281 -2.210938 11.46875 -2.390625 C 11.957031 -2.566406 12.359375 -2.765625 12.671875 -2.984375 C 12.984375 -3.203125 13.242188 -3.398438 13.453125 -3.578125 C 13.671875 -3.753906 13.878906 -3.84375 14.078125 -3.84375 C 14.335938 -3.84375 14.535156 -3.742188 14.671875 -3.546875 L 15.53125 -2.4375 C 15.144531 -1.96875 14.710938 -1.566406 14.234375 -1.234375 C 13.753906 -0.898438 13.238281 -0.617188 12.6875 -0.390625 C 12.132812 -0.171875 11.550781 -0.015625 10.9375 0.078125 C 10.332031 0.179688 9.71875 0.234375 9.09375 0.234375 C 8.007812 0.234375 7 0.0351562 6.0625 -0.359375 C 5.132812 -0.753906 4.328125 -1.332031 3.640625 -2.09375 C 2.953125 -2.863281 2.410156 -3.800781 2.015625 -4.90625 C 1.628906 -6.019531 1.4375 -7.285156 1.4375 -8.703125 C 1.4375 -9.992188 1.613281 -11.1875 1.96875 -12.28125 C 2.332031 -13.382812 2.859375 -14.332031 3.546875 -15.125 C 4.242188 -15.914062 5.097656 -16.535156 6.109375 -16.984375 C 7.128906 -17.429688 8.296875 -17.65625 9.609375 -17.65625 C 10.828125 -17.65625 11.898438 -17.457031 12.828125 -17.0625 C 13.765625 -16.664062 14.597656 -16.109375 15.328125 -15.390625 Z M 14.515625 -14.296875 "/></g></g></g><g fill="rgb(59.609985%, 47.44873%, 55.688477%)" fill-opacity="1"><g transform="translate(98.236675, 34.249977)"><g><path d="M 11.84375 -7.828125 C 10.4375 -7.773438 9.238281 -7.660156 8.25 -7.484375 C 7.257812 -7.304688 6.453125 -7.070312 5.828125 -6.78125 C 5.203125 -6.5 4.75 -6.164062 4.46875 -5.78125 C 4.1875 -5.394531 4.046875 -4.960938 4.046875 -4.484375 C 4.046875 -4.023438 4.117188 -3.628906 4.265625 -3.296875 C 4.421875 -2.960938 4.625 -2.6875 4.875 -2.46875 C 5.132812 -2.257812 5.4375 -2.109375 5.78125 -2.015625 C 6.132812 -1.921875 6.507812 -1.875 6.90625 -1.875 C 7.445312 -1.875 7.941406 -1.925781 8.390625 -2.03125 C 8.835938 -2.144531 9.257812 -2.300781 9.65625 -2.5 C 10.050781 -2.707031 10.425781 -2.953125 10.78125 -3.234375 C 11.144531 -3.523438 11.5 -3.851562 11.84375 -4.21875 Z M 1.96875 -14.921875 C 2.9375 -15.847656 3.972656 -16.539062 5.078125 -17 C 6.191406 -17.457031 7.421875 -17.6875 8.765625 -17.6875 C 9.734375 -17.6875 10.59375 -17.523438 11.34375 -17.203125 C 12.101562 -16.890625 12.738281 -16.445312 13.25 -15.875 C 13.769531 -15.300781 14.160156 -14.609375 14.421875 -13.796875 C 14.691406 -12.984375 14.828125 -12.09375 14.828125 -11.125 L 14.828125 0 L 13.46875 0 C 13.164062 0 12.9375 -0.046875 12.78125 -0.140625 C 12.625 -0.242188 12.5 -0.4375 12.40625 -0.71875 L 12.0625 -2.375 C 11.601562 -1.945312 11.15625 -1.566406 10.71875 -1.234375 C 10.289062 -0.910156 9.832031 -0.632812 9.34375 -0.40625 C 8.863281 -0.1875 8.351562 -0.0195312 7.8125 0.09375 C 7.269531 0.21875 6.664062 0.28125 6 0.28125 C 5.332031 0.28125 4.695312 0.1875 4.09375 0 C 3.5 -0.195312 2.984375 -0.484375 2.546875 -0.859375 C 2.109375 -1.234375 1.757812 -1.707031 1.5 -2.28125 C 1.238281 -2.863281 1.109375 -3.550781 1.109375 -4.34375 C 1.109375 -5.03125 1.296875 -5.691406 1.671875 -6.328125 C 2.054688 -6.960938 2.671875 -7.523438 3.515625 -8.015625 C 4.359375 -8.503906 5.460938 -8.90625 6.828125 -9.21875 C 8.191406 -9.53125 9.863281 -9.710938 11.84375 -9.765625 L 11.84375 -11.125 C 11.84375 -12.46875 11.550781 -13.484375 10.96875 -14.171875 C 10.382812 -14.867188 9.53125 -15.21875 8.40625 -15.21875 C 7.65625 -15.21875 7.023438 -15.125 6.515625 -14.9375 C 6.003906 -14.75 5.5625 -14.535156 5.1875 -14.296875 C 4.8125 -14.066406 4.488281 -13.851562 4.21875 -13.65625 C 3.957031 -13.46875 3.695312 -13.375 3.4375 -13.375 C 3.226562 -13.375 3.046875 -13.425781 2.890625 -13.53125 C 2.742188 -13.644531 2.617188 -13.785156 2.515625 -13.953125 Z M 1.96875 -14.921875 "/></g></g></g><g fill="rgb(59.609985%, 47.44873%, 55.688477%)" fill-opacity="1"><g transform="translate(115.290041, 34.249977)"><g><path d="M 5.3125 -13.890625 C 5.863281 -15.085938 6.539062 -16.019531 7.34375 -16.6875 C 8.144531 -17.351562 9.125 -17.6875 10.28125 -17.6875 C 10.644531 -17.6875 10.992188 -17.644531 11.328125 -17.5625 C 11.671875 -17.488281 11.972656 -17.363281 12.234375 -17.1875 L 12.015625 -14.90625 C 11.941406 -14.625 11.769531 -14.484375 11.5 -14.484375 C 11.332031 -14.484375 11.09375 -14.515625 10.78125 -14.578125 C 10.476562 -14.648438 10.132812 -14.6875 9.75 -14.6875 C 9.195312 -14.6875 8.707031 -14.601562 8.28125 -14.4375 C 7.851562 -14.28125 7.46875 -14.046875 7.125 -13.734375 C 6.789062 -13.421875 6.488281 -13.03125 6.21875 -12.5625 C 5.945312 -12.101562 5.703125 -11.578125 5.484375 -10.984375 L 5.484375 0 L 2.421875 0 L 2.421875 -17.375 L 4.171875 -17.375 C 4.503906 -17.375 4.734375 -17.3125 4.859375 -17.1875 C 4.984375 -17.0625 5.066406 -16.84375 5.109375 -16.53125 Z M 5.3125 -13.890625 "/></g></g></g><g fill="rgb(59.609985%, 47.44873%, 55.688477%)" fill-opacity="1"><g transform="translate(127.779824, 34.249977)"><g><path d="M 7.75 0.28125 C 6.382812 0.28125 5.332031 -0.101562 4.59375 -0.875 C 3.851562 -1.644531 3.484375 -2.75 3.484375 -4.1875 L 3.484375 -14.828125 L 1.390625 -14.828125 C 1.203125 -14.828125 1.046875 -14.878906 0.921875 -14.984375 C 0.796875 -15.097656 0.734375 -15.269531 0.734375 -15.5 L 0.734375 -16.703125 L 3.578125 -17.078125 L 4.296875 -22.4375 C 4.328125 -22.613281 4.398438 -22.753906 4.515625 -22.859375 C 4.640625 -22.972656 4.800781 -23.03125 5 -23.03125 L 6.53125 -23.03125 L 6.53125 -17.03125 L 11.5625 -17.03125 L 11.5625 -14.828125 L 6.53125 -14.828125 L 6.53125 -4.390625 C 6.53125 -3.660156 6.707031 -3.117188 7.0625 -2.765625 C 7.414062 -2.410156 7.875 -2.234375 8.4375 -2.234375 C 8.757812 -2.234375 9.035156 -2.273438 9.265625 -2.359375 C 9.503906 -2.441406 9.707031 -2.535156 9.875 -2.640625 C 10.050781 -2.742188 10.195312 -2.835938 10.3125 -2.921875 C 10.4375 -3.003906 10.546875 -3.046875 10.640625 -3.046875 C 10.796875 -3.046875 10.9375 -2.953125 11.0625 -2.765625 L 11.953125 -1.296875 C 11.429688 -0.804688 10.796875 -0.421875 10.046875 -0.140625 C 9.304688 0.140625 8.539062 0.28125 7.75 0.28125 Z M 7.75 0.28125 "/></g></g></g><g fill="rgb(59.609985%, 47.44873%, 55.688477%)" fill-opacity="1"><g transform="translate(140.080895, 34.249977)"><g/></g></g><g fill="rgb(59.609985%, 47.44873%, 55.688477%)" fill-opacity="1"><g transform="translate(148.864921, 34.249977)"><g><path d="M 5.640625 -17.375 L 5.640625 0 L 2.59375 0 L 2.59375 -17.375 Z M 6.296875 -22.828125 C 6.296875 -22.535156 6.234375 -22.257812 6.109375 -22 C 5.992188 -21.738281 5.832031 -21.507812 5.625 -21.3125 C 5.425781 -21.113281 5.191406 -20.957031 4.921875 -20.84375 C 4.660156 -20.726562 4.378906 -20.671875 4.078125 -20.671875 C 3.785156 -20.671875 3.507812 -20.726562 3.25 -20.84375 C 2.988281 -20.957031 2.757812 -21.113281 2.5625 -21.3125 C 2.375 -21.507812 2.222656 -21.738281 2.109375 -22 C 1.992188 -22.257812 1.9375 -22.535156 1.9375 -22.828125 C 1.9375 -23.128906 1.992188 -23.414062 2.109375 -23.6875 C 2.222656 -23.957031 2.375 -24.191406 2.5625 -24.390625 C 2.757812 -24.585938 2.988281 -24.742188 3.25 -24.859375 C 3.507812 -24.972656 3.785156 -25.03125 4.078125 -25.03125 C 4.378906 -25.03125 4.660156 -24.972656 4.921875 -24.859375 C 5.191406 -24.742188 5.425781 -24.585938 5.625 -24.390625 C 5.832031 -24.191406 5.992188 -23.957031 6.109375 -23.6875 C 6.234375 -23.414062 6.296875 -23.128906 6.296875 -22.828125 Z M 6.296875 -22.828125 "/></g></g></g><g fill="rgb(59.609985%, 47.44873%, 55.688477%)" fill-opacity="1"><g transform="translate(157.099952, 34.249977)"><g><path d="M 12.546875 -14.515625 C 12.398438 -14.265625 12.1875 -14.140625 11.90625 -14.140625 C 11.738281 -14.140625 11.546875 -14.203125 11.328125 -14.328125 C 11.109375 -14.453125 10.835938 -14.59375 10.515625 -14.75 C 10.203125 -14.90625 9.828125 -15.046875 9.390625 -15.171875 C 8.960938 -15.304688 8.453125 -15.375 7.859375 -15.375 C 7.335938 -15.375 6.867188 -15.304688 6.453125 -15.171875 C 6.046875 -15.046875 5.695312 -14.867188 5.40625 -14.640625 C 5.113281 -14.410156 4.890625 -14.140625 4.734375 -13.828125 C 4.585938 -13.523438 4.515625 -13.195312 4.515625 -12.84375 C 4.515625 -12.40625 4.640625 -12.035156 4.890625 -11.734375 C 5.148438 -11.429688 5.488281 -11.171875 5.90625 -10.953125 C 6.332031 -10.742188 6.816406 -10.554688 7.359375 -10.390625 C 7.898438 -10.222656 8.453125 -10.046875 9.015625 -9.859375 C 9.578125 -9.671875 10.128906 -9.460938 10.671875 -9.234375 C 11.210938 -9.003906 11.691406 -8.71875 12.109375 -8.375 C 12.535156 -8.03125 12.875 -7.609375 13.125 -7.109375 C 13.382812 -6.609375 13.515625 -6.007812 13.515625 -5.3125 C 13.515625 -4.519531 13.367188 -3.78125 13.078125 -3.09375 C 12.796875 -2.414062 12.375 -1.828125 11.8125 -1.328125 C 11.257812 -0.828125 10.578125 -0.429688 9.765625 -0.140625 C 8.953125 0.140625 8.015625 0.28125 6.953125 0.28125 C 5.734375 0.28125 4.628906 0.0820312 3.640625 -0.3125 C 2.660156 -0.707031 1.832031 -1.210938 1.15625 -1.828125 L 1.875 -3 C 1.957031 -3.144531 2.0625 -3.257812 2.1875 -3.34375 C 2.320312 -3.425781 2.484375 -3.46875 2.671875 -3.46875 C 2.878906 -3.46875 3.097656 -3.382812 3.328125 -3.21875 C 3.554688 -3.0625 3.832031 -2.882812 4.15625 -2.6875 C 4.488281 -2.5 4.890625 -2.320312 5.359375 -2.15625 C 5.828125 -2 6.410156 -1.921875 7.109375 -1.921875 C 7.703125 -1.921875 8.21875 -2 8.65625 -2.15625 C 9.101562 -2.3125 9.472656 -2.519531 9.765625 -2.78125 C 10.066406 -3.039062 10.289062 -3.34375 10.4375 -3.6875 C 10.582031 -4.03125 10.65625 -4.394531 10.65625 -4.78125 C 10.65625 -5.257812 10.523438 -5.65625 10.265625 -5.96875 C 10.003906 -6.289062 9.660156 -6.5625 9.234375 -6.78125 C 8.816406 -7.007812 8.335938 -7.207031 7.796875 -7.375 C 7.253906 -7.539062 6.695312 -7.710938 6.125 -7.890625 C 5.5625 -8.078125 5.007812 -8.285156 4.46875 -8.515625 C 3.925781 -8.753906 3.441406 -9.050781 3.015625 -9.40625 C 2.597656 -9.757812 2.257812 -10.195312 2 -10.71875 C 1.738281 -11.238281 1.609375 -11.867188 1.609375 -12.609375 C 1.609375 -13.273438 1.742188 -13.910156 2.015625 -14.515625 C 2.296875 -15.128906 2.695312 -15.664062 3.21875 -16.125 C 3.75 -16.59375 4.394531 -16.960938 5.15625 -17.234375 C 5.925781 -17.515625 6.800781 -17.65625 7.78125 -17.65625 C 8.925781 -17.65625 9.953125 -17.472656 10.859375 -17.109375 C 11.773438 -16.753906 12.566406 -16.257812 13.234375 -15.625 Z M 12.546875 -14.515625 "/></g></g></g><g fill="rgb(59.609985%, 47.44873%, 55.688477%)" fill-opacity="1"><g transform="translate(171.957311, 34.249977)"><g/></g></g><g fill="rgb(59.609985%, 47.44873%, 55.688477%)" fill-opacity="1"><g transform="translate(180.741338, 34.249977)"><g><path d="M 14.046875 -10.578125 C 14.046875 -11.296875 13.945312 -11.945312 13.75 -12.53125 C 13.550781 -13.125 13.257812 -13.632812 12.875 -14.0625 C 12.488281 -14.488281 12.019531 -14.816406 11.46875 -15.046875 C 10.925781 -15.285156 10.304688 -15.40625 9.609375 -15.40625 C 8.140625 -15.40625 6.976562 -14.976562 6.125 -14.125 C 5.28125 -13.269531 4.753906 -12.085938 4.546875 -10.578125 Z M 16.515625 -2.4375 C 16.140625 -1.976562 15.6875 -1.578125 15.15625 -1.234375 C 14.632812 -0.898438 14.070312 -0.625 13.46875 -0.40625 C 12.875 -0.1875 12.253906 -0.0234375 11.609375 0.078125 C 10.972656 0.179688 10.335938 0.234375 9.703125 0.234375 C 8.503906 0.234375 7.398438 0.03125 6.390625 -0.375 C 5.378906 -0.78125 4.503906 -1.375 3.765625 -2.15625 C 3.023438 -2.9375 2.445312 -3.90625 2.03125 -5.0625 C 1.625 -6.21875 1.421875 -7.546875 1.421875 -9.046875 C 1.421875 -10.253906 1.609375 -11.382812 1.984375 -12.4375 C 2.359375 -13.488281 2.890625 -14.398438 3.578125 -15.171875 C 4.273438 -15.941406 5.128906 -16.546875 6.140625 -16.984375 C 7.148438 -17.429688 8.28125 -17.65625 9.53125 -17.65625 C 10.570312 -17.65625 11.535156 -17.476562 12.421875 -17.125 C 13.316406 -16.78125 14.085938 -16.28125 14.734375 -15.625 C 15.378906 -14.96875 15.882812 -14.15625 16.25 -13.1875 C 16.613281 -12.21875 16.796875 -11.113281 16.796875 -9.875 C 16.796875 -9.394531 16.742188 -9.078125 16.640625 -8.921875 C 16.535156 -8.765625 16.34375 -8.6875 16.0625 -8.6875 L 4.4375 -8.6875 C 4.476562 -7.582031 4.628906 -6.625 4.890625 -5.8125 C 5.160156 -5 5.535156 -4.320312 6.015625 -3.78125 C 6.503906 -3.238281 7.078125 -2.832031 7.734375 -2.5625 C 8.398438 -2.289062 9.144531 -2.15625 9.96875 -2.15625 C 10.738281 -2.15625 11.398438 -2.242188 11.953125 -2.421875 C 12.503906 -2.597656 12.976562 -2.789062 13.375 -3 C 13.78125 -3.207031 14.113281 -3.398438 14.375 -3.578125 C 14.644531 -3.753906 14.878906 -3.84375 15.078125 -3.84375 C 15.328125 -3.84375 15.519531 -3.742188 15.65625 -3.546875 Z M 16.515625 -2.4375 "/></g></g></g><g fill="rgb(59.609985%, 47.44873%, 55.688477%)" fill-opacity="1"><g transform="translate(198.858387, 34.249977)"><g><path d="M 2.421875 0 L 2.421875 -17.375 L 4.25 -17.375 C 4.6875 -17.375 4.957031 -17.164062 5.0625 -16.75 L 5.28125 -14.953125 C 5.925781 -15.742188 6.644531 -16.390625 7.4375 -16.890625 C 8.238281 -17.398438 9.164062 -17.65625 10.21875 -17.65625 C 11.382812 -17.65625 12.332031 -17.328125 13.0625 -16.671875 C 13.789062 -16.023438 14.316406 -15.144531 14.640625 -14.03125 C 14.890625 -14.664062 15.210938 -15.207031 15.609375 -15.65625 C 16.003906 -16.113281 16.445312 -16.488281 16.9375 -16.78125 C 17.425781 -17.082031 17.945312 -17.300781 18.5 -17.4375 C 19.050781 -17.582031 19.613281 -17.65625 20.1875 -17.65625 C 21.101562 -17.65625 21.914062 -17.507812 22.625 -17.21875 C 23.34375 -16.925781 23.953125 -16.5 24.453125 -15.9375 C 24.953125 -15.375 25.332031 -14.679688 25.59375 -13.859375 C 25.851562 -13.046875 25.984375 -12.113281 25.984375 -11.0625 L 25.984375 0 L 22.921875 0 L 22.921875 -11.0625 C 22.921875 -12.425781 22.625 -13.457031 22.03125 -14.15625 C 21.4375 -14.863281 20.578125 -15.21875 19.453125 -15.21875 C 18.953125 -15.21875 18.472656 -15.128906 18.015625 -14.953125 C 17.566406 -14.773438 17.171875 -14.515625 16.828125 -14.171875 C 16.484375 -13.828125 16.210938 -13.394531 16.015625 -12.875 C 15.816406 -12.351562 15.71875 -11.75 15.71875 -11.0625 L 15.71875 0 L 12.640625 0 L 12.640625 -11.0625 C 12.640625 -12.457031 12.359375 -13.5 11.796875 -14.1875 C 11.242188 -14.875 10.425781 -15.21875 9.34375 -15.21875 C 8.59375 -15.21875 7.894531 -15.015625 7.25 -14.609375 C 6.613281 -14.203125 6.023438 -13.648438 5.484375 -12.953125 L 5.484375 0 Z M 2.421875 0 "/></g></g></g><g fill="rgb(59.609985%, 47.44873%, 55.688477%)" fill-opacity="1"><g transform="translate(227.080499, 34.249977)"><g><path d="M 5.484375 -4.1875 C 6.046875 -3.425781 6.660156 -2.890625 7.328125 -2.578125 C 7.992188 -2.273438 8.738281 -2.125 9.5625 -2.125 C 11.1875 -2.125 12.429688 -2.703125 13.296875 -3.859375 C 14.160156 -5.015625 14.59375 -6.660156 14.59375 -8.796875 C 14.59375 -9.929688 14.492188 -10.90625 14.296875 -11.71875 C 14.097656 -12.53125 13.8125 -13.195312 13.4375 -13.71875 C 13.0625 -14.238281 12.597656 -14.617188 12.046875 -14.859375 C 11.492188 -15.097656 10.867188 -15.21875 10.171875 -15.21875 C 9.179688 -15.21875 8.3125 -14.988281 7.5625 -14.53125 C 6.8125 -14.070312 6.117188 -13.425781 5.484375 -12.59375 Z M 5.328125 -14.6875 C 6.066406 -15.59375 6.914062 -16.316406 7.875 -16.859375 C 8.832031 -17.410156 9.929688 -17.6875 11.171875 -17.6875 C 12.171875 -17.6875 13.078125 -17.492188 13.890625 -17.109375 C 14.703125 -16.722656 15.394531 -16.15625 15.96875 -15.40625 C 16.539062 -14.664062 16.976562 -13.738281 17.28125 -12.625 C 17.59375 -11.519531 17.75 -10.242188 17.75 -8.796875 C 17.75 -7.515625 17.578125 -6.320312 17.234375 -5.21875 C 16.898438 -4.113281 16.40625 -3.160156 15.75 -2.359375 C 15.101562 -1.554688 14.316406 -0.921875 13.390625 -0.453125 C 12.460938 0.00390625 11.414062 0.234375 10.25 0.234375 C 9.175781 0.234375 8.257812 0.0546875 7.5 -0.296875 C 6.738281 -0.660156 6.066406 -1.160156 5.484375 -1.796875 L 5.484375 5.890625 L 2.421875 5.890625 L 2.421875 -17.375 L 4.25 -17.375 C 4.6875 -17.375 4.957031 -17.164062 5.0625 -16.75 Z M 5.328125 -14.6875 "/></g></g></g><g fill="rgb(59.609985%, 47.44873%, 55.688477%)" fill-opacity="1"><g transform="translate(246.312729, 34.249977)"><g><path d="M 7.75 0.28125 C 6.382812 0.28125 5.332031 -0.101562 4.59375 -0.875 C 3.851562 -1.644531 3.484375 -2.75 3.484375 -4.1875 L 3.484375 -14.828125 L 1.390625 -14.828125 C 1.203125 -14.828125 1.046875 -14.878906 0.921875 -14.984375 C 0.796875 -15.097656 0.734375 -15.269531 0.734375 -15.5 L 0.734375 -16.703125 L 3.578125 -17.078125 L 4.296875 -22.4375 C 4.328125 -22.613281 4.398438 -22.753906 4.515625 -22.859375 C 4.640625 -22.972656 4.800781 -23.03125 5 -23.03125 L 6.53125 -23.03125 L 6.53125 -17.03125 L 11.5625 -17.03125 L 11.5625 -14.828125 L 6.53125 -14.828125 L 6.53125 -4.390625 C 6.53125 -3.660156 6.707031 -3.117188 7.0625 -2.765625 C 7.414062 -2.410156 7.875 -2.234375 8.4375 -2.234375 C 8.757812 -2.234375 9.035156 -2.273438 9.265625 -2.359375 C 9.503906 -2.441406 9.707031 -2.535156 9.875 -2.640625 C 10.050781 -2.742188 10.195312 -2.835938 10.3125 -2.921875 C 10.4375 -3.003906 10.546875 -3.046875 10.640625 -3.046875 C 10.796875 -3.046875 10.9375 -2.953125 11.0625 -2.765625 L 11.953125 -1.296875 C 11.429688 -0.804688 10.796875 -0.421875 10.046875 -0.140625 C 9.304688 0.140625 8.539062 0.28125 7.75 0.28125 Z M 7.75 0.28125 "/></g></g></g><g fill="rgb(59.609985%, 47.44873%, 55.688477%)" fill-opacity="1"><g transform="translate(258.6138, 34.249977)"><g><path d="M 17.40625 -17.375 L 7.71875 5.125 C 7.613281 5.351562 7.484375 5.535156 7.328125 5.671875 C 7.179688 5.816406 6.945312 5.890625 6.625 5.890625 L 4.359375 5.890625 L 7.53125 -1.015625 L 0.359375 -17.375 L 3 -17.375 C 3.257812 -17.375 3.46875 -17.304688 3.625 -17.171875 C 3.78125 -17.046875 3.890625 -16.90625 3.953125 -16.75 L 8.59375 -5.796875 C 8.78125 -5.316406 8.9375 -4.816406 9.0625 -4.296875 C 9.21875 -4.828125 9.390625 -5.332031 9.578125 -5.8125 L 14.078125 -16.75 C 14.148438 -16.925781 14.269531 -17.070312 14.4375 -17.1875 C 14.601562 -17.3125 14.789062 -17.375 15 -17.375 Z M 17.40625 -17.375 "/></g></g></g><g fill="rgb(59.609985%, 47.44873%, 55.688477%)" fill-opacity="1"><g transform="translate(276.301947, 34.249977)"><g><path d="M 1.90625 -1.890625 C 1.90625 -2.179688 1.957031 -2.457031 2.0625 -2.71875 C 2.175781 -2.988281 2.328125 -3.21875 2.515625 -3.40625 C 2.703125 -3.601562 2.925781 -3.757812 3.1875 -3.875 C 3.445312 -3.988281 3.726562 -4.046875 4.03125 -4.046875 C 4.332031 -4.046875 4.613281 -3.988281 4.875 -3.875 C 5.132812 -3.757812 5.359375 -3.601562 5.546875 -3.40625 C 5.742188 -3.21875 5.898438 -2.988281 6.015625 -2.71875 C 6.128906 -2.457031 6.1875 -2.179688 6.1875 -1.890625 C 6.1875 -1.578125 6.128906 -1.289062 6.015625 -1.03125 C 5.898438 -0.78125 5.742188 -0.554688 5.546875 -0.359375 C 5.359375 -0.160156 5.132812 -0.0078125 4.875 0.09375 C 4.613281 0.195312 4.332031 0.25 4.03125 0.25 C 3.726562 0.25 3.445312 0.195312 3.1875 0.09375 C 2.925781 -0.0078125 2.703125 -0.160156 2.515625 -0.359375 C 2.328125 -0.554688 2.175781 -0.78125 2.0625 -1.03125 C 1.957031 -1.289062 1.90625 -1.578125 1.90625 -1.890625 Z M 1.90625 -1.890625 "/></g></g></g></g></g></g></svg>